<svg id="ehesvZKWkog1" xmlns="http://www.w3.org/2000/svg" xmlns:xlink="http://www.w3.org/1999/xlink" viewBox="0 0 640 480" shape-rendering="geometricPrecision" text-rendering="geometricPrecision"><path id="ehesvZKWkog2" d="M479.231640,419.523480C485.043060,419.523480,493.015000,418.581050,497.927580,415.072070C543.825330,382.287960,458.486020,380.340600,471.219090,352.752270C482.274820,328.798190,520.118730,338.178190,513.062380,302.896430C505.038590,262.777450,449.931320,295.326930,428.485510,271.736530C396.939980,237.036440,439.359810,233.836190,425.814660,206.745880C420.819680,196.755920,400.818780,186.246720,390.203350,182.708240C363.709480,173.876950,349.189180,207.185920,322.541850,204.965310C318.239740,204.606800,313.470910,200.791790,309.187610,199.623610C304.179330,198.257720,299.796260,194.964280,295.833370,191.611060C289.380240,186.150720,282.750620,179.237600,274.466580,176.476250C262.458230,172.473470,208.894350,179.260090,215.707910,201.404170C219.251580,212.921100,232.311920,219.166020,236.184420,230.783500" fill="none" stroke="rgb(173,114,207)" stroke-width="10"/></svg>